<?xml version="1.0" encoding="UTF-8"?>
<!-- 2018-06-17 13:10:30 Generated by QCAD SVG Exporter -->
<svg width="55.3657mm" height="58.2239mm" viewBox="18.161 -60 55.3657 58.2239" version="1.1" xmlns="http://www.w3.org/2000/svg" style="stroke-linecap:round;stroke-linejoin:round;fill:none">
    <g transform="scale(1,-1)">
        <!-- Line -->
        <path d="M30,10 L50,20 " style="stroke:#0000ff;stroke-width:0.25;"/>
        <!-- Line -->
        <path d="M50,20 L50,60 " style="stroke:#0000ff;stroke-width:0.25;"/>
        <!-- Line -->
        <path d="M50,60 L30,50 " style="stroke:#0000ff;stroke-width:0.25;"/>
        <!-- Line -->
        <path d="M30,50 L30,10 " style="stroke:#0000ff;stroke-width:0.25;"/>
        <!-- Leader -->
        <path d="M69,35 L66.5,34.5837 L66.5,35.4163 Z" style="stroke:#000000;stroke-width:0.25;fill:#000000;fill-rule:evenodd;"/>
        <path d="M69,35 L40,35 " style="stroke:#000000;stroke-width:0.25;"/>
        <!-- Leader -->
        <path d="M40,45 L40.4163,42.5 L39.5837,42.5 Z" style="stroke:#000000;stroke-width:0.25;fill:#000000;fill-rule:evenodd;"/>
        <path d="M40,45 L40,35 " style="stroke:#000000;stroke-width:0.25;"/>
        <!-- Aligned Dimension -->
        <g>
            <path d="M33.5529,2.8941 L35.6028,4.3845 L35.9752,3.6398 Z" style="stroke:#000000;stroke-width:0.25;fill:#000000;fill-rule:evenodd;"/>
            <path d="M53.5529,12.8941 L51.503,11.4038 L51.1307,12.1484 Z" style="stroke:#000000;stroke-width:0.25;fill:#000000;fill-rule:evenodd;"/>
            <g>
                <path d="M40.5467,11.4222 L42.1616,9.4345 L41.9131,11.1737 L43.1554,9.9315 L42.5343,12.416" style="stroke:#000000;stroke-width:0.25;"/>
            </g>
            <path d="M30.8944,8.2111 L34.1119,1.7761 M50.8944,18.2111 L54.1119,11.7761 M33.5529,2.8941 L53.5529,12.8941 " style="stroke:#000000;stroke-width:0.25;"/>
        </g>
        <!-- Aligned Dimension -->
        <g>
            <path d="M22.661,10 L22.2447,12.5 L23.0773,12.5 Z" style="stroke:#000000;stroke-width:0.25;fill:#000000;fill-rule:evenodd;"/>
            <path d="M22.661,50 L23.0773,47.5 L22.2447,47.5 Z" style="stroke:#000000;stroke-width:0.25;fill:#000000;fill-rule:evenodd;"/>
            <g>
                <path d="M18.161,29.4444 L20.661,29.4444 L20.661,30.5556" style="stroke:#000000;stroke-width:0.25;"/>
            </g>
            <path d="M28,10 L21.411,10 M28,50 L21.411,50 M22.661,10 L22.661,50 " style="stroke:#000000;stroke-width:0.25;"/>
        </g>
        <!-- Leader -->
        <path d="M35,33 L37.1666,34.315 L37.4758,33.542 Z" style="stroke:#000000;stroke-width:0.25;fill:#000000;fill-rule:evenodd;"/>
        <path d="M35,33 L40,35 " style="stroke:#000000;stroke-width:0.25;"/>
        <!-- Text: X -->
        <g>
            <path d="M35,30 L35.7737,31.0422 L35.0916,32 L35.4067,32 L35.7697,31.487 C35.8452,31.3806 35.8988,31.2988 35.9306,31.2414 C35.9752,31.3143 36.028,31.3902 36.0888,31.4692 L36.4912,32 L36.7791,32 L36.0766,31.0573 L36.8336,30 L36.5063,30 L36.0028,30.7136 C35.9746,30.7545 35.9455,30.7991 35.9155,30.8472 C35.8711,30.7746 35.8392,30.7245 35.82,30.6972 L35.3181,30 Z" style="fill:#000000;fill-rule:evenodd;"/>
        </g>
        <!-- Text: Z -->
        <g>
            <path d="M41,43 L41,43.2455 L42.0248,44.5267 C42.0974,44.6175 42.1666,44.6966 42.2322,44.764 L41.1162,44.764 L41.1162,45 L42.5487,45 L42.5487,44.764 L41.4257,43.3765 L41.3043,43.236 L42.5815,43.236 L42.5815,43 Z" style="fill:#000000;fill-rule:evenodd;"/>
        </g>
        <!-- Text: Y -->
        <g>
            <path d="M65.7707,32 L65.7707,32.8472 L65,34 L65.322,34 L65.7162,33.397 C65.7889,33.2843 65.8566,33.1715 65.9194,33.0586 C65.9796,33.1632 66.0524,33.281 66.1377,33.4121 L66.5254,34 L66.8336,34 L66.0356,32.8472 L66.0356,32 Z" style="fill:#000000;fill-rule:evenodd;"/>
        </g>
        <!-- Text: P -->
        <g>
            <path d="M72,34 L72,36 L72.7543,36 C72.8871,36 72.9886,35.9937 73.0586,35.981 C73.1568,35.9645 73.2392,35.9334 73.3056,35.8874 C73.372,35.8415 73.4255,35.7771 73.4659,35.6944 C73.5064,35.6117 73.5267,35.5208 73.5267,35.4216 C73.5267,35.2516 73.4725,35.1077 73.3642,34.9898 C73.2559,34.872 73.0603,34.8131 72.7776,34.8131 L72.2646,34.8131 L72.2646,34 Z M72.2646,35.0491 L72.7816,35.0491 C72.9527,35.0491 73.0741,35.0809 73.1459,35.1446 C73.2177,35.2083 73.2536,35.2979 73.2536,35.4134 C73.2536,35.497 73.2325,35.5686 73.1902,35.6283 C73.148,35.6879 73.0923,35.7272 73.0231,35.7463 C72.9785,35.7581 72.8962,35.764 72.7763,35.764 L72.2646,35.764 Z" style="fill:#000000;fill-rule:evenodd;"/>
        </g>
        <!-- Circle -->
        <circle cx="70" cy="35" r="0.25" style="stroke:#ff0000;stroke-width:0.4;"/>
        <!-- Leader -->
        <path d="M52,55 L52.4163,52.5 L51.5837,52.5 Z" style="stroke:#ff0000;stroke-width:0.25;fill:#ff0000;fill-rule:evenodd;"/>
        <path d="M52,55 L52,45 " style="stroke:#ff0000;stroke-width:0.25;"/>
        <!-- Text: NI -->
        <g>
            <path d="M53,49 L53,51 L53.2715,51 L54.3222,49.4297 L54.3222,51 L54.5759,51 L54.5759,49 L54.3044,49 L53.2537,50.5716 L53.2537,49 Z M55.0656,49 L55.0656,51 L55.3302,51 L55.3302,49 Z" style="fill:#000000;fill-rule:evenodd;"/>
        </g>
    </g>
</svg>
